#Comment line ignore any data following # character 
#Hierarchical Translation and Rotation (.htr) file 
[Header]	
#Header keywords are followed by a single value 
FileType HTR		#Single word string
DataType HTRS		#Translation followed by rotation and scale data
FileVersion 1		#integer
NumSegments 84		#integer
NumFrames 2		#integer
DataFrameRate 30		#integer, data frame rate in this file
EulerRotationOrder ZYX
CalibrationUnits mm
RotationUnits Degrees
GlobalAxisofGravity Y
BoneLengthAxis Y
ScaleFactor 1.00
[SegmentNames&Hierarchy]
#CHILD	PARENT
MASTER GLOBAL
root MASTER
chest root
L_mid_tent01 root
R_mid_tent01 root
spine01 root
Bip01_Neck chest
L_humerus chest
R_humerus chest
weapon_bone chest
Bip01_Head Bip01_Neck
eye_left_bone Bip01_Head
eye_right_bone Bip01_Head
L_forearm L_humerus
L_front_hand L_forearm
L_weapon_bone L_forearm
L_front_hand01_01 L_front_hand
L_front_hand02_01 L_front_hand
L_front_hand03_01 L_front_hand
L_front_hand01_02 L_front_hand01_01
L_front_hand02_02 L_front_hand02_01
L_front_hand03_02 L_front_hand03_01
R_forearm R_humerus
R_front_hand R_forearm
R_weapon_bone R_forearm
R_front_hand01_01 R_front_hand
R_front_hand02_01 R_front_hand
R_front_hand03_01 R_front_hand
R_front_hand01_02 R_front_hand01_01
R_front_hand02_02 R_front_hand02_01
R_front_hand03_02 R_front_hand03_01
null_rope01_connect L_mid_tent01
Rope1_Seg01 null_rope01_connect
Rope1_Seg02 Rope1_Seg01
Rope1_Seg03 Rope1_Seg02
Rope1_Seg04 Rope1_Seg03
Rope1_Seg05 Rope1_Seg04
Rope1_Seg06 Rope1_Seg05
Rope1_Seg07 Rope1_Seg06
Rope1_Seg09 Rope1_Seg07
L_mid_hand01 Rope1_Seg09
L_mid_hand02 Rope1_Seg09
L_mid_hand03 Rope1_Seg09
null_rope02_connect R_mid_tent01
Rope2_Seg01 null_rope02_connect
Rope2_Seg02 Rope2_Seg01
Rope2_Seg03 Rope2_Seg02
Rope2_Seg04 Rope2_Seg03
Rope2_Seg05 Rope2_Seg04
Rope2_Seg06 Rope2_Seg05
Rope2_Seg07 Rope2_Seg06
Rope2_Seg09 Rope2_Seg07
R_mid_hand01 Rope2_Seg09
R_mid_hand02 Rope2_Seg09
R_mid_hand03 Rope2_Seg09
spine02 spine01
spine03 spine02
pelvis spine03
null_rope03_connect pelvis
null_rope04_connect pelvis
Rope3_Seg01 null_rope03_connect
Rope3_Seg02 Rope3_Seg01
Rope3_Seg03 Rope3_Seg02
Rope3_Seg04 Rope3_Seg03
Rope3_Seg05 Rope3_Seg04
Rope3_Seg06 Rope3_Seg05
Rope3_Seg07 Rope3_Seg06
Rope3_Seg08 Rope3_Seg07
Rope3_Seg09 Rope3_Seg08
R_rear_hand01 Rope3_Seg09
R_rear_hand02 Rope3_Seg09
R_rear_hand03 Rope3_Seg09
Rope4_Seg01 null_rope04_connect
Rope4_Seg02 Rope4_Seg01
Rope4_Seg03 Rope4_Seg02
Rope4_Seg04 Rope4_Seg03
Rope4_Seg05 Rope4_Seg04
Rope4_Seg06 Rope4_Seg05
Rope4_Seg07 Rope4_Seg06
Rope4_Seg08 Rope4_Seg07
Rope4_Seg09 Rope4_Seg08
L_rear_hand01 Rope4_Seg09
L_rear_hand02 Rope4_Seg09
L_rear_hand03 Rope4_Seg09
[BasePosition]
#SegmentName Tx, Ty, Tz, Rx, Ry, Rz, BoneLength
MASTER 0.000000 0.000000 0.000000 -90.000000 0.000000 0.000000 10.000000 
root 0.000000 0.000000 0.000000 0.000000 0.000000 0.000000 10.000000 
chest 0.000000 0.000000 0.000000 0.000000 0.000000 0.000000 10.000000 
L_mid_tent01 0.000000 0.000000 0.000000 0.000000 0.000000 0.000000 10.000000 
R_mid_tent01 0.000000 0.000000 0.000000 0.000000 0.000000 0.000000 10.000000 
spine01 0.000000 0.000000 0.000000 0.000000 0.000000 0.000000 10.000000 
Bip01_Neck 0.000000 0.000000 0.000000 0.000000 0.000000 0.000000 10.000000 
L_humerus 0.000000 0.000000 0.000000 0.000000 0.000000 0.000000 10.000000 
R_humerus 0.000000 0.000000 0.000000 0.000000 0.000000 0.000000 10.000000 
weapon_bone 0.000000 0.000000 0.000000 0.000000 0.000000 0.000000 10.000000 
Bip01_Head 0.000000 0.000000 0.000000 0.000000 0.000000 0.000000 10.000000 
eye_left_bone 0.000000 0.000000 0.000000 0.000000 0.000000 0.000000 10.000000 
eye_right_bone 0.000000 0.000000 0.000000 0.000000 0.000000 0.000000 10.000000 
L_forearm 0.000000 0.000000 0.000000 0.000000 0.000000 0.000000 10.000000 
L_front_hand 0.000000 0.000000 0.000000 0.000000 0.000000 0.000000 10.000000 
L_weapon_bone 0.000000 0.000000 0.000000 0.000000 0.000000 0.000000 10.000000 
L_front_hand01_01 0.000000 0.000000 0.000000 0.000000 0.000000 0.000000 10.000000 
L_front_hand02_01 0.000000 0.000000 0.000000 0.000000 0.000000 0.000000 10.000000 
L_front_hand03_01 0.000000 0.000000 0.000000 0.000000 0.000000 0.000000 10.000000 
L_front_hand01_02 0.000000 0.000000 0.000000 0.000000 0.000000 0.000000 10.000000 
L_front_hand02_02 0.000000 0.000000 0.000000 0.000000 0.000000 0.000000 10.000000 
L_front_hand03_02 0.000000 0.000000 0.000000 0.000000 0.000000 0.000000 10.000000 
R_forearm 0.000000 0.000000 0.000000 0.000000 0.000000 0.000000 10.000000 
R_front_hand 0.000000 0.000000 0.000000 0.000000 0.000000 0.000000 10.000000 
R_weapon_bone 0.000000 0.000000 0.000000 0.000000 0.000000 0.000000 10.000000 
R_front_hand01_01 0.000000 0.000000 0.000000 0.000000 0.000000 0.000000 10.000000 
R_front_hand02_01 0.000000 0.000000 0.000000 0.000000 0.000000 0.000000 10.000000 
R_front_hand03_01 0.000000 0.000000 0.000000 0.000000 0.000000 0.000000 10.000000 
R_front_hand01_02 0.000000 0.000000 0.000000 0.000000 0.000000 0.000000 10.000000 
R_front_hand02_02 0.000000 0.000000 0.000000 0.000000 0.000000 0.000000 10.000000 
R_front_hand03_02 0.000000 0.000000 0.000000 0.000000 0.000000 0.000000 10.000000 
null_rope01_connect 0.000000 0.000000 0.000000 0.000000 0.000000 0.000000 10.000000 
Rope1_Seg01 0.000000 0.000000 0.000000 0.000000 0.000000 0.000000 10.000000 
Rope1_Seg02 0.000000 0.000000 0.000000 0.000000 0.000000 0.000000 10.000000 
Rope1_Seg03 0.000000 0.000000 0.000000 0.000000 0.000000 0.000000 10.000000 
Rope1_Seg04 0.000000 0.000000 0.000000 0.000000 0.000000 0.000000 10.000000 
Rope1_Seg05 0.000000 0.000000 0.000000 0.000000 0.000000 0.000000 10.000000 
Rope1_Seg06 0.000000 0.000000 0.000000 0.000000 0.000000 0.000000 10.000000 
Rope1_Seg07 0.000000 0.000000 0.000000 0.000000 0.000000 0.000000 10.000000 
Rope1_Seg09 0.000000 0.000000 0.000000 0.000000 0.000000 0.000000 10.000000 
L_mid_hand01 0.000000 0.000000 0.000000 0.000000 0.000000 0.000000 10.000000 
L_mid_hand02 0.000000 0.000000 0.000000 0.000000 0.000000 0.000000 10.000000 
L_mid_hand03 0.000000 0.000000 0.000000 0.000000 0.000000 0.000000 10.000000 
null_rope02_connect 0.000000 0.000000 0.000000 0.000000 0.000000 0.000000 10.000000 
Rope2_Seg01 0.000000 0.000000 0.000000 0.000000 0.000000 0.000000 10.000000 
Rope2_Seg02 0.000000 0.000000 0.000000 0.000000 0.000000 0.000000 10.000000 
Rope2_Seg03 0.000000 0.000000 0.000000 0.000000 0.000000 0.000000 10.000000 
Rope2_Seg04 0.000000 0.000000 0.000000 0.000000 0.000000 0.000000 10.000000 
Rope2_Seg05 0.000000 0.000000 0.000000 0.000000 0.000000 0.000000 10.000000 
Rope2_Seg06 0.000000 0.000000 0.000000 0.000000 0.000000 0.000000 10.000000 
Rope2_Seg07 0.000000 0.000000 0.000000 0.000000 0.000000 0.000000 10.000000 
Rope2_Seg09 0.000000 0.000000 0.000000 0.000000 0.000000 0.000000 10.000000 
R_mid_hand01 0.000000 0.000000 0.000000 0.000000 0.000000 0.000000 10.000000 
R_mid_hand02 0.000000 0.000000 0.000000 0.000000 0.000000 0.000000 10.000000 
R_mid_hand03 0.000000 0.000000 0.000000 0.000000 0.000000 0.000000 10.000000 
spine02 0.000000 0.000000 0.000000 0.000000 0.000000 0.000000 10.000000 
spine03 0.000000 0.000000 0.000000 0.000000 0.000000 0.000000 10.000000 
pelvis 0.000000 0.000000 0.000000 0.000000 0.000000 0.000000 10.000000 
null_rope03_connect 0.000000 0.000000 0.000000 0.000000 0.000000 0.000000 10.000000 
null_rope04_connect 0.000000 0.000000 0.000000 0.000000 0.000000 0.000000 10.000000 
Rope3_Seg01 0.000000 0.000000 0.000000 0.000000 0.000000 0.000000 10.000000 
Rope3_Seg02 0.000000 0.000000 0.000000 0.000000 0.000000 0.000000 10.000000 
Rope3_Seg03 0.000000 0.000000 0.000000 0.000000 0.000000 0.000000 10.000000 
Rope3_Seg04 0.000000 0.000000 0.000000 0.000000 0.000000 0.000000 10.000000 
Rope3_Seg05 0.000000 0.000000 0.000000 0.000000 0.000000 0.000000 10.000000 
Rope3_Seg06 0.000000 0.000000 0.000000 0.000000 0.000000 0.000000 10.000000 
Rope3_Seg07 0.000000 0.000000 0.000000 0.000000 0.000000 0.000000 10.000000 
Rope3_Seg08 0.000000 0.000000 0.000000 0.000000 0.000000 0.000000 10.000000 
Rope3_Seg09 0.000000 0.000000 0.000000 0.000000 0.000000 0.000000 10.000000 
R_rear_hand01 0.000000 0.000000 0.000000 0.000000 0.000000 0.000000 10.000000 
R_rear_hand02 0.000000 0.000000 0.000000 0.000000 0.000000 0.000000 10.000000 
R_rear_hand03 0.000000 0.000000 0.000000 0.000000 0.000000 0.000000 10.000000 
Rope4_Seg01 0.000000 0.000000 0.000000 0.000000 0.000000 0.000000 10.000000 
Rope4_Seg02 0.000000 0.000000 0.000000 0.000000 0.000000 0.000000 10.000000 
Rope4_Seg03 0.000000 0.000000 0.000000 0.000000 0.000000 0.000000 10.000000 
Rope4_Seg04 0.000000 0.000000 0.000000 0.000000 0.000000 0.000000 10.000000 
Rope4_Seg05 0.000000 0.000000 0.000000 0.000000 0.000000 0.000000 10.000000 
Rope4_Seg06 0.000000 0.000000 0.000000 0.000000 0.000000 0.000000 10.000000 
Rope4_Seg07 0.000000 0.000000 0.000000 0.000000 0.000000 0.000000 10.000000 
Rope4_Seg08 0.000000 0.000000 0.000000 0.000000 0.000000 0.000000 10.000000 
Rope4_Seg09 0.000000 0.000000 0.000000 0.000000 0.000000 0.000000 10.000000 
L_rear_hand01 0.000000 0.000000 0.000000 0.000000 0.000000 0.000000 10.000000 
L_rear_hand02 0.000000 0.000000 0.000000 0.000000 0.000000 0.000000 10.000000 
L_rear_hand03 0.000000 0.000000 0.000000 0.000000 0.000000 0.000000 10.000000 
#Beginning of Data. Separated by tabs
#Fr	Tx	Ty	Tz	Rx	Ry	Rz	SF
[MASTER]
95 -0.000074 554.566467 0.000000 0.001660 0.001660 0.001660 554.566467
96 -0.000074 554.566467 0.000000 0.001660 0.001660 0.001660 554.566467
[root]
95 -279.050537 412.714691 1003.368469 -95.629951 -24.185045 -93.427986 1120.245972
96 -277.289856 415.903137 1005.815857 -95.609673 -24.199289 -93.657524 1123.178833
[chest]
95 -84.512650 -34.090519 0.000000 -10.272197 3.645014 176.624817 91.129311
96 -84.512650 -34.090519 0.000000 -10.896040 3.763866 176.109451 91.129311
[L_mid_tent01]
95 27.690130 21.953690 -252.427841 10.057096 16.044971 77.646095 254.889252
96 27.683687 21.957380 -252.386444 10.008535 15.839182 77.559387 254.847870
[R_mid_tent01]
95 23.228794 24.509907 226.238495 154.509979 -34.615524 83.258514 228.744751
96 23.228794 24.509907 226.238495 154.461731 -34.759735 83.379463 228.744751
[spine01]
95 -0.361383 -0.195265 0.000000 0.001869 0.001420 15.534141 0.410763
96 -0.361383 -0.195265 0.000000 0.001869 0.001420 15.534141 0.410763
[Bip01_Neck]
95 165.484543 71.581718 0.000119 175.896118 1.177290 24.871183 180.302734
96 165.484543 71.581718 0.000119 175.896118 1.177290 24.871183 180.302734
[L_humerus]
95 -13.983130 -135.272980 -120.471481 169.543106 3.094478 -114.345909 181.680161
96 -13.983130 -135.272980 -120.471481 169.399902 3.355501 -113.308800 181.680161
[R_humerus]
95 -13.983309 -135.273102 125.287651 169.525970 -36.483490 -82.473015 184.909012
96 -13.983309 -135.273102 125.287651 168.879837 -36.822735 -82.290260 184.909012
[weapon_bone]
95 235.964890 -300.705902 0.000000 0.000000 -89.951546 -128.212341 382.234833
96 235.964890 -300.705902 0.000000 0.000000 -89.951546 -128.212341 382.234833
[Bip01_Head]
95 183.329391 139.679779 12.333316 -25.408188 7.744706 -47.859924 230.807755
96 183.352020 140.062302 12.358022 -25.245928 7.386795 -48.101841 231.058716
[eye_left_bone]
95 -24.626970 125.451866 -64.772606 0.000000 -90.000000 -99.840431 143.318359
96 -24.626970 125.451866 -64.772606 0.000000 -90.000000 -99.840431 143.318359
[eye_right_bone]
95 -24.626970 125.451866 64.327362 0.000000 -89.960434 80.159386 143.117676
96 -24.626970 125.451866 64.327362 0.000000 -89.960434 80.159386 143.117676
[L_forearm]
95 322.776093 0.000000 -0.000119 0.000031 -0.002347 -91.498611 322.776093
96 322.776093 0.000000 -0.000119 0.000029 -0.002347 -91.411186 322.776093
[L_front_hand]
95 241.149185 -0.042021 -3.300071 -179.180954 -2.115722 -12.593303 241.171753
96 241.149185 -0.042021 -3.300071 -179.170883 -2.111473 -12.882222 241.171753
[L_weapon_bone]
95 156.183838 0.000000 0.000000 0.000014 0.000007 0.000001 156.183838
96 156.183838 0.000000 0.000000 0.000014 0.000007 0.000001 156.183838
[L_front_hand01_01]
95 86.095154 20.947098 -0.655860 -0.366594 -0.477154 75.385574 88.609184
96 86.095154 20.947098 -0.655860 -0.366594 -0.477154 75.385574 88.609184
[L_front_hand02_01]
95 86.935165 -11.437475 24.513514 154.403519 -59.888931 -61.371990 91.046425
96 86.935165 -11.437475 24.513514 154.403519 -59.888931 -61.371990 91.046425
[L_front_hand03_01]
95 86.637497 -14.123976 -20.424902 -153.913849 58.118122 -62.702866 90.126129
96 86.637497 -14.123976 -20.424902 -153.913879 58.118130 -62.702892 90.126129
[L_front_hand01_02]
95 71.020905 -0.000179 0.000030 0.000334 -0.002323 -106.379684 71.020905
96 71.020905 -0.000179 0.000030 0.000334 -0.002323 -106.379684 71.020905
[L_front_hand02_02]
95 71.020927 -0.000119 0.000060 0.000334 -0.002323 -106.379684 71.020927
96 71.020927 -0.000119 0.000060 0.000334 -0.002323 -106.379684 71.020927
[L_front_hand03_02]
95 71.020905 -0.000060 0.000060 0.000334 -0.002323 -106.379684 71.020905
96 71.020905 -0.000060 0.000060 0.000334 -0.002323 -106.379684 71.020905
[R_forearm]
95 322.776428 -0.000060 0.000030 0.209487 0.012874 -94.496429 322.776428
96 322.776428 -0.000060 0.000030 0.209500 0.012655 -94.376480 322.776428
[R_front_hand]
95 238.847015 -0.006795 2.210259 -116.534431 0.789243 -51.441441 238.857239
96 238.847015 -0.006795 2.210259 -116.534431 0.789243 -51.441441 238.857239
[R_weapon_bone]
95 155.664093 0.002503 -0.000030 0.003487 0.001180 -90.988930 155.664078
96 155.664093 0.002503 -0.000030 0.003487 0.001180 -90.988930 155.664078
[R_front_hand01_01]
95 87.624611 14.231146 22.918642 -119.094612 -21.476278 11.969802 91.683487
96 87.624611 14.231146 22.918642 -127.130791 -41.439014 27.073296 91.683487
[R_front_hand02_01]
95 89.356956 14.367283 -19.491137 120.422508 20.396343 14.475515 92.579636
96 89.356956 14.367283 -19.491137 128.330521 40.072624 29.884411 92.579636
[R_front_hand03_01]
95 87.286232 -22.307278 -0.143439 -0.234841 -0.386787 -23.929483 90.091743
96 87.286232 -22.307278 -0.143439 -0.058664 -0.451095 -47.606949 90.091743
[R_front_hand01_02]
95 71.020905 0.000060 0.000119 0.001777 0.001534 8.377220 71.020905
96 71.020905 0.000060 0.000119 0.001777 0.001534 8.377220 71.020905
[R_front_hand02_02]
95 71.020844 -0.000030 -0.000119 0.001777 0.001534 8.377220 71.020836
96 71.020844 -0.000030 -0.000119 0.001777 0.001534 8.377220 71.020836
[R_front_hand03_02]
95 71.020905 0.000000 0.000030 0.001777 0.001534 8.377220 71.020905
96 71.020905 0.000000 0.000030 0.001777 0.001534 8.377220 71.020905
[null_rope01_connect]
95 328.732483 0.000000 -0.000238 -116.717812 -63.800293 154.986557 328.732483
96 328.732483 0.000000 -0.000238 -116.290108 -63.820686 154.611221 328.732483
[Rope1_Seg01]
95 6.646614 -4.413877 -0.343886 -13.865679 4.030424 174.097076 7.986115
96 6.645221 -4.418381 -0.318732 63.422562 26.394308 -106.902740 7.986403
[Rope1_Seg02]
95 139.999863 -0.000179 0.000000 1.349842 8.160418 -1.677293 139.999863
96 139.999863 -0.000179 0.000000 -1.202515 8.073849 -10.404854 139.999863
[Rope1_Seg03]
95 139.999924 0.000060 -0.000060 0.244645 19.232128 -4.608142 139.999924
96 139.999924 0.000060 -0.000060 -6.313480 22.902924 -29.987112 139.999924
[Rope1_Seg04]
95 139.999924 -0.000060 -0.000119 -19.479309 47.353546 -12.661510 139.999924
96 139.999924 -0.000060 -0.000119 -7.556326 26.067898 -34.573582 139.999924
[Rope1_Seg05]
95 139.999832 0.000119 -0.000060 -24.938412 26.564878 -2.731115 139.999832
96 139.999832 0.000119 -0.000060 24.186968 5.346027 -19.441984 139.999832
[Rope1_Seg06]
95 139.999954 0.000119 -0.000060 -33.834801 21.051601 -0.343465 139.999954
96 139.999954 0.000119 -0.000060 70.751427 -4.723335 -21.522646 139.999954
[Rope1_Seg07]
95 139.999985 0.000060 0.000000 -32.383888 13.599394 12.104984 139.999985
96 139.999985 0.000060 0.000000 25.080425 -13.881899 -3.079123 139.999985
[Rope1_Seg09]
95 121.602913 0.000119 -0.000089 -89.793175 -1.359789 0.847147 121.602913
96 121.602913 0.000119 -0.000089 -89.793175 -1.359789 0.847147 121.602913
[L_mid_hand01]
95 103.859421 1.038730 8.195221 116.294914 -23.111713 -31.758034 104.187431
96 103.859421 1.038730 8.195221 116.294914 -23.111713 -31.758034 104.187431
[L_mid_hand02]
95 105.572853 -4.139662 -10.864139 -144.219833 17.447468 -35.360519 106.211075
96 105.572853 -4.139662 -10.864139 -144.219833 17.447468 -35.360519 106.211075
[L_mid_hand03]
95 104.641464 17.579376 -3.913581 -17.830778 17.153101 31.982922 106.179977
96 104.641464 17.579376 -3.913581 -17.830780 17.153103 31.982925 106.179977
[null_rope02_connect]
95 328.732849 0.000179 -0.000119 -105.166466 54.981594 37.116112 328.732849
96 328.732849 0.000179 -0.000119 -105.484871 55.059803 36.815872 328.732849
[Rope2_Seg01]
95 0.000021 0.000248 0.000000 36.712025 30.648540 -32.432774 0.000249
96 0.000021 0.000249 0.000000 36.304558 30.928101 -32.730881 0.000250
[Rope2_Seg02]
95 139.999741 -0.000060 -0.000119 9.529529 7.163625 9.641453 139.999756
96 139.999741 -0.000060 -0.000119 9.531259 7.144310 9.727148 139.999756
[Rope2_Seg03]
95 140.000107 0.000030 0.000000 15.810780 17.856745 17.995850 140.000107
96 140.000107 0.000030 0.000000 15.944773 17.912464 18.289125 140.000107
[Rope2_Seg04]
95 139.999802 0.000000 -0.000060 12.182358 31.994635 20.663036 139.999802
96 139.999802 0.000000 -0.000060 12.257396 31.940117 20.964924 139.999802
[Rope2_Seg05]
95 139.999985 -0.000060 0.000119 -0.182204 14.723551 9.418860 139.999985
96 139.999985 -0.000060 0.000119 -0.191925 14.611012 9.356558 139.999985
[Rope2_Seg06]
95 139.999893 -0.000030 -0.000119 -1.651903 7.190199 7.716208 139.999893
96 139.999893 -0.000030 -0.000119 -1.639531 7.286693 7.520590 139.999893
[Rope2_Seg07]
95 139.999893 0.000060 -0.000060 -1.915782 6.762288 5.802421 139.999893
96 139.999893 0.000060 -0.000060 -1.916532 6.753372 5.683428 139.999893
[Rope2_Seg09]
95 121.338966 0.000089 -0.000060 33.793236 -1.359788 -0.847141 121.338966
96 121.338966 0.000089 -0.000060 33.793236 -1.359788 -0.847141 121.338966
[R_mid_hand01]
95 104.680779 11.144459 -10.335981 -41.523792 25.424656 28.595957 105.778534
96 104.680779 11.144459 -10.335981 -41.523792 25.424656 28.595957 105.778534
[R_mid_hand02]
95 104.070427 2.443552 8.231699 72.847389 -32.746803 10.013901 104.424065
96 104.070427 2.443552 8.231699 72.847389 -32.746803 10.013901 104.424065
[R_mid_hand03]
95 106.028137 -11.221827 -5.996406 -167.901306 10.259192 -37.009720 106.788818
96 106.028137 -11.221827 -5.996406 -167.901306 10.259192 -37.009720 106.788818
[spine02]
95 129.756927 0.001550 0.000119 -0.245322 -4.052060 -4.355547 129.756927
96 129.756927 0.001550 0.000119 -0.245322 -4.052060 -4.355547 129.756927
[spine03]
95 78.613846 0.087372 -4.898873 0.369659 4.260734 -4.885720 78.766380
96 78.613846 0.087372 -4.898873 0.369659 4.260734 -4.885720 78.766380
[pelvis]
95 169.435242 0.051022 0.000000 -0.010007 -0.191417 -1.897554 169.435257
96 169.435242 0.051022 0.000000 -0.010007 -0.191417 -1.897554 169.435257
[null_rope03_connect]
95 -1.257226 -2.466202 137.391083 -130.034058 -82.679489 -120.311722 137.418976
96 -1.257226 -2.466202 137.391083 -128.852493 -82.522255 -121.486679 137.418976
[null_rope04_connect]
95 -1.259640 -2.480268 -137.844437 -130.034058 -82.679489 -120.311722 137.872513
96 -1.259640 -2.480268 -137.844437 -128.852493 -82.522255 -121.486679 137.872513
[Rope3_Seg01]
95 0.000000 0.000000 0.000000 -28.216484 -39.210667 -13.382434 0.000000
96 0.000000 0.000000 0.000000 -26.055529 -39.335564 -15.562289 0.000000
[Rope3_Seg02]
95 139.999924 -0.000119 0.000060 -1.910135 -0.773716 4.561573 139.999924
96 139.999924 -0.000119 0.000060 -1.823675 -0.707023 4.614308 139.999924
[Rope3_Seg03]
95 139.999924 -0.000119 0.000119 -3.681497 -1.406366 6.929565 139.999924
96 139.999924 -0.000119 0.000119 -3.609650 -1.319965 7.138934 139.999924
[Rope3_Seg04]
95 139.999924 0.000119 0.000000 -8.741227 -3.088506 11.524481 139.999924
96 139.999924 0.000119 0.000000 -9.009382 -3.033110 12.232646 139.999924
[Rope3_Seg05]
95 139.999924 -0.000238 0.000060 -33.758591 -10.863391 25.284067 139.999924
96 139.999924 -0.000238 0.000060 -36.857346 -11.233209 27.366077 139.999924
[Rope3_Seg06]
95 139.999893 -0.000119 -0.000060 -30.988859 -19.023687 14.254940 139.999893
96 139.999893 -0.000119 -0.000060 -31.881636 -20.352571 14.229348 139.999893
[Rope3_Seg07]
95 139.999771 0.000060 -0.000119 -3.982367 -3.818095 1.614974 139.999771
96 139.999771 0.000060 -0.000119 -4.588602 -4.824286 1.527736 139.999771
[Rope3_Seg08]
95 139.999985 -0.000060 0.000000 -4.424913 -5.065155 1.109067 139.999985
96 139.999985 -0.000060 0.000000 -4.594810 -5.906475 0.853425 139.999985
[Rope3_Seg09]
95 90.185997 -0.000179 -0.000060 89.793228 -1.359877 -0.847183 90.185997
96 90.185997 -0.000179 -0.000060 89.793228 -1.359877 -0.847183 90.185997
[R_rear_hand01]
95 103.366196 -6.073594 -10.757982 -161.551193 16.666374 -30.088671 104.101845
96 103.366196 -6.073594 -10.757982 -161.551193 16.666374 -30.088671 104.101845
[R_rear_hand02]
95 100.509819 12.039542 -7.992327 -34.280552 19.289745 28.875523 101.543350
96 100.509819 12.039542 -7.992327 -34.280552 19.289745 28.875523 101.543350
[R_rear_hand03]
95 101.539970 5.215704 5.435467 83.366440 -30.933914 7.284830 101.819031
96 101.539970 5.215704 5.435467 83.366440 -30.933914 7.284830 101.819031
[Rope4_Seg01]
95 -0.000014 -0.000028 0.000057 -81.439240 -22.170589 -145.289658 0.000065
96 -0.000014 -0.000028 0.000056 -81.730774 -22.128244 -144.895996 0.000064
[Rope4_Seg02]
95 139.999985 0.000060 0.000119 6.713952 12.680660 -4.666754 139.999985
96 139.999985 0.000060 0.000119 6.608948 12.704562 -4.569619 139.999985
[Rope4_Seg03]
95 139.999924 0.000000 -0.000238 20.406034 22.248262 -12.185155 139.999924
96 139.999924 0.000000 -0.000238 20.337862 22.418570 -12.007322 139.999924
[Rope4_Seg04]
95 139.999985 0.000000 0.000119 29.315786 17.005650 -24.188910 139.999985
96 139.999985 0.000000 0.000119 29.667450 17.345108 -24.124023 139.999985
[Rope4_Seg05]
95 139.999802 -0.000060 -0.000119 13.816393 2.659533 -16.930641 139.999802
96 139.999802 -0.000060 -0.000119 13.980076 2.712106 -16.931084 139.999802
[Rope4_Seg06]
95 139.999924 0.000000 0.000060 14.298001 1.480203 -27.465366 139.999924
96 139.999924 0.000000 0.000060 14.472923 1.461315 -27.515341 139.999924
[Rope4_Seg07]
95 139.999802 0.000000 0.000000 7.755596 -6.060913 -32.352657 139.999802
96 139.999802 0.000000 0.000000 7.867513 -6.197655 -32.485798 139.999802
[Rope4_Seg08]
95 139.999924 0.000000 0.000119 -1.449416 -4.372399 -13.088466 139.999924
96 139.999924 0.000000 0.000119 -1.436791 -4.449451 -13.090804 139.999924
[Rope4_Seg09]
95 90.185791 0.000060 0.000060 -135.617828 2.228885 0.850567 90.185791
96 90.185791 0.000060 0.000060 -135.617828 2.228885 0.850567 90.185791
[L_rear_hand01]
95 101.696655 -8.392275 -7.654577 -34.454281 -18.946800 151.655121 102.329041
96 101.696655 -8.392275 -7.654577 -34.454281 -18.946800 151.655121 102.329041
[L_rear_hand02]
95 102.726799 -1.568258 5.773216 83.407906 30.330435 172.796509 102.900848
96 102.726799 -1.568258 5.773216 83.407906 30.330435 172.796509 102.900848
[L_rear_hand03]
95 104.552910 9.721220 -10.420293 -161.379868 -16.473232 -150.512238 105.519653
96 104.552910 9.721220 -10.420293 -161.379868 -16.473232 -150.512238 105.519653
